{
    "asset" : {
        "generator" : "Khronos glTF Blender I/O v1.5.17",
        "version" : "2.0"
    },
    "scene" : 0,
    "scenes" : [
        {
            "name" : "Scene",
            "nodes" : [
                0,
                1,
                2
            ]
        }
    ],
    "nodes" : [
        {
            "mesh" : 0,
            "name" : "IronMan",
            "rotation" : [
                0.7071068286895752,
                0,
                0,
                0.7071067094802856
            ],
            "scale" : [
                0.19999998807907104,
                0.19999998807907104,
                0.19999998807907104
            ]
        },
        {
            "name" : "Light",
            "rotation" : [
                0.16907575726509094,
                0.7558803558349609,
                -0.27217137813568115,
                0.570947527885437
            ],
            "translation" : [
                4.076245307922363,
                5.903861999511719,
                -1.0054539442062378
            ]
        },
        {
            "name" : "Camera",
            "rotation" : [
                0.483536034822464,
                0.33687159419059753,
                -0.20870360732078552,
                0.7804827094078064
            ],
            "translation" : [
                7.358891487121582,
                4.958309173583984,
                6.925790786743164
            ]
        }
    ],
    "materials" : [
        {
            "doubleSided" : true,
            "name" : "darksilver",
            "pbrMetallicRoughness" : {
                "baseColorFactor" : [
                    0.800000011920929,
                    0.800000011920929,
                    0.800000011920929,
                    1
                ],
                "metallicFactor" : 0,
                "roughnessFactor" : 0.8945907354354858
            }
        },
        {
            "doubleSided" : true,
            "name" : "red",
            "pbrMetallicRoughness" : {
                "baseColorFactor" : [
                    0.4000000059604645,
                    0.10000000149011612,
                    0.10000000149011612,
                    1
                ],
                "metallicFactor" : 0,
                "roughnessFactor" : 0.8945907354354858
            }
        },
        {
            "doubleSided" : true,
            "name" : "gold",
            "pbrMetallicRoughness" : {
                "baseColorFactor" : [
                    0.6000000238418579,
                    0.5,
                    0.10000000149011612,
                    1
                ],
                "metallicFactor" : 0,
                "roughnessFactor" : 0.8945907354354858
            }
        },
        {
            "doubleSided" : true,
            "name" : "silver",
            "pbrMetallicRoughness" : {
                "baseColorFactor" : [
                    0.800000011920929,
                    0.800000011920929,
                    0.800000011920929,
                    1
                ],
                "metallicFactor" : 0,
                "roughnessFactor" : 0.8945907354354858
            }
        },
        {
            "doubleSided" : true,
            "name" : "lambert1",
            "pbrMetallicRoughness" : {
                "baseColorFactor" : [
                    0.4000000059604645,
                    0.4000000059604645,
                    0.4000000059604645,
                    1
                ],
                "metallicFactor" : 0,
                "roughnessFactor" : 0.9269703030586243
            }
        },
        {
            "doubleSided" : true,
            "name" : "yellow",
            "pbrMetallicRoughness" : {
                "metallicFactor" : 0,
                "roughnessFactor" : 0.8945907354354858
            }
        },
        {
            "doubleSided" : true,
            "name" : "black",
            "pbrMetallicRoughness" : {
                "baseColorFactor" : [
                    0.800000011920929,
                    0.800000011920929,
                    0.800000011920929,
                    1
                ],
                "metallicFactor" : 0,
                "roughnessFactor" : 0.8945907354354858
            }
        },
        {
            "doubleSided" : true,
            "name" : "14_-_Default",
            "pbrMetallicRoughness" : {
                "baseColorFactor" : [
                    0,
                    0.20000000298023224,
                    0.8999999761581421,
                    1
                ],
                "metallicFactor" : 0
            }
        },
        {
            "doubleSided" : true,
            "name" : "Iron_man_leg:red",
            "pbrMetallicRoughness" : {
                "baseColorFactor" : [
                    0.800000011920929,
                    0.800000011920929,
                    0.800000011920929,
                    1
                ],
                "metallicFactor" : 0,
                "roughnessFactor" : 0.5
            }
        }
    ],
    "meshes" : [
        {
            "name" : "IronMan",
            "primitives" : [
                {
                    "attributes" : {
                        "POSITION" : 0,
                        "NORMAL" : 1,
                        "TEXCOORD_0" : 2
                    },
                    "indices" : 3,
                    "material" : 0
                },
                {
                    "attributes" : {
                        "POSITION" : 4,
                        "NORMAL" : 5,
                        "TEXCOORD_0" : 6
                    },
                    "indices" : 7,
                    "material" : 1
                },
                {
                    "attributes" : {
                        "POSITION" : 8,
                        "NORMAL" : 9,
                        "TEXCOORD_0" : 10
                    },
                    "indices" : 11,
                    "material" : 2
                },
                {
                    "attributes" : {
                        "POSITION" : 12,
                        "NORMAL" : 13,
                        "TEXCOORD_0" : 14
                    },
                    "indices" : 15,
                    "material" : 3
                },
                {
                    "attributes" : {
                        "POSITION" : 16,
                        "NORMAL" : 17,
                        "TEXCOORD_0" : 18
                    },
                    "indices" : 19,
                    "material" : 4
                },
                {
                    "attributes" : {
                        "POSITION" : 20,
                        "NORMAL" : 21,
                        "TEXCOORD_0" : 22
                    },
                    "indices" : 23,
                    "material" : 5
                },
                {
                    "attributes" : {
                        "POSITION" : 24,
                        "NORMAL" : 25,
                        "TEXCOORD_0" : 26
                    },
                    "indices" : 27,
                    "material" : 6
                },
                {
                    "attributes" : {
                        "POSITION" : 28,
                        "NORMAL" : 29,
                        "TEXCOORD_0" : 30
                    },
                    "indices" : 31,
                    "material" : 7
                },
                {
                    "attributes" : {
                        "POSITION" : 32,
                        "NORMAL" : 33,
                        "TEXCOORD_0" : 34
                    },
                    "indices" : 35,
                    "material" : 8
                }
            ]
        }
    ],
    "accessors" : [
        {
            "bufferView" : 0,
            "componentType" : 5126,
            "count" : 21391,
            "max" : [
                115.58856964111328,
                19.481990814208984,
                -165.4519500732422
            ],
            "min" : [
                -117.54952239990234,
                -25.733612060546875,
                -210.0283660888672
            ],
            "type" : "VEC3"
        },
        {
            "bufferView" : 1,
            "componentType" : 5126,
            "count" : 21391,
            "type" : "VEC3"
        },
        {
            "bufferView" : 2,
            "componentType" : 5126,
            "count" : 21391,
            "type" : "VEC2"
        },
        {
            "bufferView" : 3,
            "componentType" : 5123,
            "count" : 88698,
            "type" : "SCALAR"
        },
        {
            "bufferView" : 4,
            "componentType" : 5126,
            "count" : 90482,
            "max" : [
                128.086669921875,
                34.14922332763672,
                2.0505690574645996
            ],
            "min" : [
                -130.19056701660156,
                -43.50102996826172,
                -238.49490356445312
            ],
            "type" : "VEC3"
        },
        {
            "bufferView" : 5,
            "componentType" : 5126,
            "count" : 90482,
            "type" : "VEC3"
        },
        {
            "bufferView" : 6,
            "componentType" : 5126,
            "count" : 90482,
            "type" : "VEC2"
        },
        {
            "bufferView" : 7,
            "componentType" : 5125,
            "count" : 317790,
            "type" : "SCALAR"
        },
        {
            "bufferView" : 8,
            "componentType" : 5126,
            "count" : 9460,
            "max" : [
                76.82525634765625,
                24.392559051513672,
                1.1763319969177246
            ],
            "min" : [
                -79.307373046875,
                -25.55939483642578,
                -236.50074768066406
            ],
            "type" : "VEC3"
        },
        {
            "bufferView" : 9,
            "componentType" : 5126,
            "count" : 9460,
            "type" : "VEC3"
        },
        {
            "bufferView" : 10,
            "componentType" : 5126,
            "count" : 9460,
            "type" : "VEC2"
        },
        {
            "bufferView" : 11,
            "componentType" : 5123,
            "count" : 45144,
            "type" : "SCALAR"
        },
        {
            "bufferView" : 12,
            "componentType" : 5126,
            "count" : 10854,
            "max" : [
                26.458744049072266,
                16.382877349853516,
                -8.559221267700195
            ],
            "min" : [
                -21.71204376220703,
                -25.222423553466797,
                -209.60874938964844
            ],
            "type" : "VEC3"
        },
        {
            "bufferView" : 13,
            "componentType" : 5126,
            "count" : 10854,
            "type" : "VEC3"
        },
        {
            "bufferView" : 14,
            "componentType" : 5126,
            "count" : 10854,
            "type" : "VEC2"
        },
        {
            "bufferView" : 15,
            "componentType" : 5123,
            "count" : 60714,
            "type" : "SCALAR"
        },
        {
            "bufferView" : 16,
            "componentType" : 5126,
            "count" : 10526,
            "max" : [
                26.434734344482422,
                21.726207733154297,
                -63.126953125
            ],
            "min" : [
                -26.57575035095215,
                -17.726909637451172,
                -202.73965454101562
            ],
            "type" : "VEC3"
        },
        {
            "bufferView" : 17,
            "componentType" : 5126,
            "count" : 10526,
            "type" : "VEC3"
        },
        {
            "bufferView" : 18,
            "componentType" : 5126,
            "count" : 10526,
            "type" : "VEC2"
        },
        {
            "bufferView" : 19,
            "componentType" : 5123,
            "count" : 57618,
            "type" : "SCALAR"
        },
        {
            "bufferView" : 20,
            "componentType" : 5126,
            "count" : 64,
            "max" : [
                6.872128963470459,
                14.292781829833984,
                -220.7528839111328
            ],
            "min" : [
                -7.268435001373291,
                11.271748542785645,
                -222.408203125
            ],
            "type" : "VEC3"
        },
        {
            "bufferView" : 21,
            "componentType" : 5126,
            "count" : 64,
            "type" : "VEC3"
        },
        {
            "bufferView" : 22,
            "componentType" : 5126,
            "count" : 64,
            "type" : "VEC2"
        },
        {
            "bufferView" : 23,
            "componentType" : 5123,
            "count" : 252,
            "type" : "SCALAR"
        },
        {
            "bufferView" : 24,
            "componentType" : 5126,
            "count" : 160,
            "max" : [
                21.352432250976562,
                -1.3814129829406738,
                -15.597315788269043
            ],
            "min" : [
                -21.288166046142578,
                -7.667746067047119,
                -65.26949310302734
            ],
            "type" : "VEC3"
        },
        {
            "bufferView" : 25,
            "componentType" : 5126,
            "count" : 160,
            "type" : "VEC3"
        },
        {
            "bufferView" : 26,
            "componentType" : 5126,
            "count" : 160,
            "type" : "VEC2"
        },
        {
            "bufferView" : 27,
            "componentType" : 5123,
            "count" : 720,
            "type" : "SCALAR"
        },
        {
            "bufferView" : 28,
            "componentType" : 5126,
            "count" : 232,
            "max" : [
                16.211931228637695,
                -4.658700942993164,
                -14.86987590789795
            ],
            "min" : [
                -16.636558532714844,
                -12.793848037719727,
                -49.797996520996094
            ],
            "type" : "VEC3"
        },
        {
            "bufferView" : 29,
            "componentType" : 5126,
            "count" : 232,
            "type" : "VEC3"
        },
        {
            "bufferView" : 30,
            "componentType" : 5126,
            "count" : 232,
            "type" : "VEC2"
        },
        {
            "bufferView" : 31,
            "componentType" : 5123,
            "count" : 1248,
            "type" : "SCALAR"
        },
        {
            "bufferView" : 32,
            "componentType" : 5126,
            "count" : 8816,
            "max" : [
                128.44383239746094,
                25.227846145629883,
                1.5674819946289062
            ],
            "min" : [
                -130.1074981689453,
                -41.139808654785156,
                -235.9026641845703
            ],
            "type" : "VEC3"
        },
        {
            "bufferView" : 33,
            "componentType" : 5126,
            "count" : 8816,
            "type" : "VEC3"
        },
        {
            "bufferView" : 34,
            "componentType" : 5126,
            "count" : 8816,
            "type" : "VEC2"
        },
        {
            "bufferView" : 35,
            "componentType" : 5123,
            "count" : 24498,
            "type" : "SCALAR"
        }
    ],
    "bufferViews" : [
        {
            "buffer" : 0,
            "byteLength" : 256692,
            "byteOffset" : 0
        },
        {
            "buffer" : 0,
            "byteLength" : 256692,
            "byteOffset" : 256692
        },
        {
            "buffer" : 0,
            "byteLength" : 171128,
            "byteOffset" : 513384
        },
        {
            "buffer" : 0,
            "byteLength" : 177396,
            "byteOffset" : 684512
        },
        {
            "buffer" : 0,
            "byteLength" : 1085784,
            "byteOffset" : 861908
        },
        {
            "buffer" : 0,
            "byteLength" : 1085784,
            "byteOffset" : 1947692
        },
        {
            "buffer" : 0,
            "byteLength" : 723856,
            "byteOffset" : 3033476
        },
        {
            "buffer" : 0,
            "byteLength" : 1271160,
            "byteOffset" : 3757332
        },
        {
            "buffer" : 0,
            "byteLength" : 113520,
            "byteOffset" : 5028492
        },
        {
            "buffer" : 0,
            "byteLength" : 113520,
            "byteOffset" : 5142012
        },
        {
            "buffer" : 0,
            "byteLength" : 75680,
            "byteOffset" : 5255532
        },
        {
            "buffer" : 0,
            "byteLength" : 90288,
            "byteOffset" : 5331212
        },
        {
            "buffer" : 0,
            "byteLength" : 130248,
            "byteOffset" : 5421500
        },
        {
            "buffer" : 0,
            "byteLength" : 130248,
            "byteOffset" : 5551748
        },
        {
            "buffer" : 0,
            "byteLength" : 86832,
            "byteOffset" : 5681996
        },
        {
            "buffer" : 0,
            "byteLength" : 121428,
            "byteOffset" : 5768828
        },
        {
            "buffer" : 0,
            "byteLength" : 126312,
            "byteOffset" : 5890256
        },
        {
            "buffer" : 0,
            "byteLength" : 126312,
            "byteOffset" : 6016568
        },
        {
            "buffer" : 0,
            "byteLength" : 84208,
            "byteOffset" : 6142880
        },
        {
            "buffer" : 0,
            "byteLength" : 115236,
            "byteOffset" : 6227088
        },
        {
            "buffer" : 0,
            "byteLength" : 768,
            "byteOffset" : 6342324
        },
        {
            "buffer" : 0,
            "byteLength" : 768,
            "byteOffset" : 6343092
        },
        {
            "buffer" : 0,
            "byteLength" : 512,
            "byteOffset" : 6343860
        },
        {
            "buffer" : 0,
            "byteLength" : 504,
            "byteOffset" : 6344372
        },
        {
            "buffer" : 0,
            "byteLength" : 1920,
            "byteOffset" : 6344876
        },
        {
            "buffer" : 0,
            "byteLength" : 1920,
            "byteOffset" : 6346796
        },
        {
            "buffer" : 0,
            "byteLength" : 1280,
            "byteOffset" : 6348716
        },
        {
            "buffer" : 0,
            "byteLength" : 1440,
            "byteOffset" : 6349996
        },
        {
            "buffer" : 0,
            "byteLength" : 2784,
            "byteOffset" : 6351436
        },
        {
            "buffer" : 0,
            "byteLength" : 2784,
            "byteOffset" : 6354220
        },
        {
            "buffer" : 0,
            "byteLength" : 1856,
            "byteOffset" : 6357004
        },
        {
            "buffer" : 0,
            "byteLength" : 2496,
            "byteOffset" : 6358860
        },
        {
            "buffer" : 0,
            "byteLength" : 105792,
            "byteOffset" : 6361356
        },
        {
            "buffer" : 0,
            "byteLength" : 105792,
            "byteOffset" : 6467148
        },
        {
            "buffer" : 0,
            "byteLength" : 70528,
            "byteOffset" : 6572940
        },
        {
            "buffer" : 0,
            "byteLength" : 48996,
            "byteOffset" : 6643468
        }
    ],
    "buffers" : [
        {
            "byteLength" : 6692464,
            "uri" : "ironman.bin"
        }
    ]
}
